<?xml version="1.0" standalone="no"?><!DOCTYPE svg PUBLIC "-//W3C//DTD SVG 1.1//EN" "http://www.w3.org/Graphics/SVG/1.1/DTD/svg11.dtd"><svg t="1516696619194" class="icon" style="" viewBox="0 0 1024 1024" version="1.1" xmlns="http://www.w3.org/2000/svg" p-id="1933" xmlns:xlink="http://www.w3.org/1999/xlink" width="64" height="64"><defs><style type="text/css"></style></defs><path d="M854.360296 1023.377375 169.639704 1023.377375c-59.450642 0-108.124224-45.314629-108.124224-100.667832L61.515481 335.33813c0-28.557143 23.4361-50.354066 54.082765-50.354066l180.194614 0c30.606366 0 54.041458-21.83823 54.041458-50.354066L349.834318 66.810315c0-28.516843 25.239497-50.355073 54.042466-50.355073l450.483512 0c59.450642 0 108.124224 45.314629 108.124224 100.709139l0 805.54617C962.484519 978.062745 913.80993 1023.377375 854.360296 1023.377375L854.360296 1023.377375zM737.221102 385.651896 448.94458 385.651896c-14.422138 0-27.041886 11.758349-27.041886 25.19819 0 13.397526 12.618741 25.156883 27.041886 25.156883l288.276523 0c14.422138 0 27.041886-11.758349 27.041886-25.156883C764.262989 397.410246 751.644248 385.651896 737.221102 385.651896L737.221102 385.651896zM737.221102 553.47158 286.77789 553.47158c-14.422138 0-27.040879 11.759357-27.040879 25.19819 0 13.397526 12.618741 25.156883 27.040879 25.156883l450.443212 0c14.422138 0 27.041886-11.758349 27.041886-25.156883C764.262989 565.230937 751.644248 553.47158 737.221102 553.47158L737.221102 553.47158zM737.221102 721.292272 286.77789 721.292272c-14.422138 0-27.040879 11.759357-27.040879 25.19819 0 13.437826 12.618741 25.155876 27.040879 25.155876l450.443212 0c14.422138 0 27.041886-11.717043 27.041886-25.155876C764.262989 733.051629 751.644248 721.292272 737.221102 721.292272L737.221102 721.292272zM239.90569 236.310482 101.176108 236.310482c-19.830314 0-25.239497-11.758349-12.618741-25.156883L268.750973 38.293471c14.422138-13.438833 25.239497-8.399397 25.239497 10.037566l0 137.623364C293.989463 214.471245 270.553363 236.310482 239.90569 236.310482L239.90569 236.310482z" p-id="1934" fill="#788D9B"></path></svg>